<svg xmlns="http://www.w3.org/2000/svg" viewBox="0 0 247.01 101.13"><defs><style>.cls-1{fill:#004699;}.cls-2{fill:#f32735;}</style></defs><g id="Capa_2" data-name="Capa 2"><g id="Capa_1-2" data-name="Capa 1"><path class="cls-1" d="M68,8.41h1.27v6.67a13.55,13.55,0,0,1-7.06,2.18c-5.17,0-9.06-3.72-9.06-8.66s4-8.6,9.35-8.6a10.93,10.93,0,0,1,7,2.51l-1,1.29a2.55,2.55,0,0,1-3.13.65,6.41,6.41,0,0,0-2.81-.7A4.72,4.72,0,0,0,57.66,8.6a4.76,4.76,0,0,0,4.84,4.89,6.88,6.88,0,0,0,2.92-.8V11A2.55,2.55,0,0,1,68,8.41Z"/><path class="cls-1" d="M96.94,17.06a2.54,2.54,0,0,1-2.26-1.36l-1.75-3.32H89.65v2.14a2.55,2.55,0,0,1-2.55,2.54H85.22V.12h7.62c4.49,0,7.06,2.18,7.06,6a5.73,5.73,0,0,1-3,5.46l3.53,5.53ZM89.65,8.85h3.21c1.79,0,2.83-.92,2.83-2.64s-1-2.56-2.83-2.56H89.65Z"/><path class="cls-1" d="M123.37,13.49A3.21,3.21,0,0,0,126.68,10V2.67A2.55,2.55,0,0,1,129.23.12h1.88V10c0,4.47-3,7.3-7.76,7.3s-7.86-2.83-7.86-7.3V.12h1.88a2.55,2.55,0,0,1,2.55,2.55V10A3.31,3.31,0,0,0,123.37,13.49Z"/><path class="cls-1" d="M161.42,6.07c0,4-2.49,6.31-6.81,6.31h-3v2.14A2.55,2.55,0,0,1,149,17.06h-1.88V.12h7.45C158.93.12,161.42,2.3,161.42,6.07Zm-4.2.14c0-1.67-1-2.56-2.83-2.56h-2.8v5.2h2.8C156.18,8.85,157.22,7.93,157.22,6.21Z"/><path class="cls-1" d="M193.89,8.58c0,5-3.92,8.68-9.16,8.68s-9.16-3.72-9.16-8.68S179.48,0,184.73,0,193.89,3.67,193.89,8.58Zm-13.78,0a4.78,4.78,0,0,0,4.67,4.89,4.7,4.7,0,0,0,4.57-4.89,4.65,4.65,0,0,0-4.57-4.83A4.72,4.72,0,0,0,180.11,8.6Z"/><path class="cls-1" d="M47.34,56.72H19.44a1.46,1.46,0,0,1-1.22-.42,1.33,1.33,0,0,1-.39-1.14V52.31a1.34,1.34,0,0,1,.4-1.15,1.45,1.45,0,0,1,1.21-.42H48.18a13,13,0,0,0,13-13V33.6H17.65A17.13,17.13,0,0,0,5.18,38.74,17,17,0,0,0,0,51.2v5.38A17,17,0,0,0,5.18,69.05a17.12,17.12,0,0,0,12.47,5.13h27.9a1.49,1.49,0,0,1,1.21.41,1.38,1.38,0,0,1,.4,1.16v5a1.38,1.38,0,0,1-.42,1.15,1.41,1.41,0,0,1-1.19.41H14.93a13,13,0,0,0-13,13v4.15H47.34A17.62,17.62,0,0,0,65,81.81V74.32a17.6,17.6,0,0,0-17.65-17.6Z"/><path class="cls-1" d="M73.51,99.42H87.18a4.17,4.17,0,0,0,4.17-4.17V33.6H77.68a4.17,4.17,0,0,0-4.17,4.16Z"/><path class="cls-1" d="M229.13,33.55v36L195.2,36.28a9.36,9.36,0,0,0-6.56-2.68h0A9.38,9.38,0,0,0,179.26,43V95.3a4.16,4.16,0,0,0,4.16,4.16h13.72V63.34l33.92,33.38a9.35,9.35,0,0,0,6.58,2.7h0A9.38,9.38,0,0,0,247,90V37.71a4.16,4.16,0,0,0-4.16-4.16Z"/><rect class="cls-2" x="127.52" y="20.43" width="15.69" height="45.95" rx="7.68"/><path class="cls-2" d="M146.27,31.27V48.48a20.09,20.09,0,1,1-21.76,0V31.27a35.78,35.78,0,1,0,21.76,0Z"/></g></g></svg>