<svg version="1.2" baseProfile="tiny-ps" xmlns="http://www.w3.org/2000/svg" viewBox="0 0 248 102" width="248" height="102">
	<title>LogoSION-svg</title>
	<style>
		tspan { white-space:pre }
		.shp0 { fill: #f8f9fa } 
		.shp1 { fill: #fafafa } 
		.shp2 { fill: #f6f8fa } 
		.shp3 { fill: #f9fbfd } 
		.shp4 { fill: #f6f7f9 } 
		.shp5 { fill: #fafcff } 
		.shp6 { fill: #fdfdfd } 
		.shp7 { fill: #ffffff } 
		.shp8 { fill: #f32735 } 
	</style>
	<g id="Capa_2">
		<g id="Capa_1-2">
			<path id="Layer" class="shp0" d="M68 8.41L69.27 8.41L69.27 15.08C68.75 15.42 68.2 15.72 67.64 15.99C67.07 16.25 66.49 16.48 65.89 16.66C65.3 16.84 64.69 16.99 64.07 17.09C63.46 17.19 62.83 17.25 62.21 17.26C57.04 17.26 53.15 13.54 53.15 8.6C53.15 3.66 57.15 0 62.5 0C63.13 0 63.76 0.05 64.39 0.16C65.01 0.27 65.62 0.43 66.22 0.64C66.82 0.85 67.39 1.12 67.94 1.43C68.49 1.75 69.01 2.11 69.5 2.51L68.5 3.8C68.32 4.02 68.1 4.21 67.85 4.36C67.6 4.51 67.33 4.62 67.05 4.68C66.77 4.74 66.48 4.75 66.19 4.71C65.9 4.67 65.63 4.58 65.37 4.45C65.15 4.34 64.93 4.24 64.7 4.16C64.47 4.07 64.24 4 64.01 3.94C63.77 3.88 63.53 3.84 63.29 3.8C63.05 3.77 62.8 3.75 62.56 3.75C61.91 3.73 61.27 3.83 60.67 4.07C60.07 4.3 59.52 4.66 59.06 5.11C58.6 5.57 58.24 6.11 58 6.71C57.76 7.31 57.64 7.95 57.66 8.6C57.64 9.24 57.76 9.88 57.99 10.48C58.23 11.08 58.58 11.62 59.04 12.08C59.49 12.54 60.03 12.9 60.62 13.14C61.22 13.38 61.86 13.5 62.5 13.49C62.75 13.48 63.01 13.45 63.26 13.41C63.51 13.37 63.76 13.32 64 13.25C64.25 13.19 64.49 13.1 64.73 13.01C64.96 12.92 65.2 12.81 65.42 12.69L65.42 11C65.41 10.66 65.48 10.32 65.61 10C65.73 9.69 65.92 9.4 66.16 9.16C66.4 8.92 66.69 8.73 67.01 8.6C67.32 8.47 67.66 8.41 68 8.41L68 8.41Z" />
			<path id="Layer" fill-rule="evenodd" class="shp1" d="M96.94 17.06C96.71 17.06 96.48 17.03 96.25 16.97C96.03 16.91 95.82 16.82 95.62 16.7C95.42 16.58 95.24 16.43 95.08 16.26C94.92 16.09 94.79 15.9 94.68 15.7L92.93 12.38L89.65 12.38L89.65 14.52C89.65 14.85 89.58 15.18 89.45 15.49C89.32 15.8 89.14 16.08 88.9 16.32C88.66 16.55 88.38 16.74 88.07 16.87C87.76 16.99 87.43 17.06 87.1 17.06L85.22 17.06L85.22 0.12L92.84 0.12C97.33 0.12 99.9 2.3 99.9 6.12C99.94 6.67 99.9 7.22 99.78 7.76C99.67 8.29 99.47 8.81 99.21 9.29C98.94 9.78 98.61 10.22 98.22 10.6C97.83 10.99 97.38 11.32 96.9 11.58L100.43 17.11L96.94 17.06ZM89.65 8.85L92.86 8.85C94.65 8.85 95.69 7.93 95.69 6.21C95.69 4.49 94.69 3.65 92.86 3.65L89.65 3.65L89.65 8.85Z" />
			<path id="Layer" class="shp2" d="M123.37 13.49C123.82 13.51 124.28 13.43 124.7 13.25C125.12 13.08 125.5 12.82 125.81 12.49C126.12 12.16 126.36 11.77 126.51 11.34C126.66 10.91 126.72 10.45 126.68 10L126.68 2.67C126.68 2.34 126.75 2 126.87 1.69C127 1.38 127.19 1.1 127.43 0.87C127.66 0.63 127.94 0.44 128.25 0.31C128.56 0.19 128.9 0.12 129.23 0.12L131.11 0.12L131.11 10C131.11 14.47 128.11 17.3 123.35 17.3C118.59 17.3 115.49 14.47 115.49 10L115.49 0.12L117.37 0.12C117.7 0.12 118.04 0.19 118.35 0.31C118.66 0.44 118.94 0.63 119.17 0.87C119.41 1.1 119.6 1.38 119.73 1.69C119.85 2 119.92 2.34 119.92 2.67L119.92 10C119.89 10.46 119.97 10.92 120.13 11.36C120.29 11.79 120.55 12.18 120.87 12.51C121.2 12.84 121.59 13.1 122.02 13.26C122.45 13.43 122.91 13.51 123.37 13.49L123.37 13.49Z" />
			<path id="Layer" fill-rule="evenodd" class="shp3" d="M161.42 6.07C161.42 10.07 158.93 12.38 154.61 12.38L151.61 12.38L151.61 14.52C151.61 14.86 151.54 15.19 151.41 15.51C151.27 15.82 151.08 16.1 150.84 16.34C150.6 16.57 150.31 16.76 149.99 16.88C149.68 17.01 149.34 17.07 149 17.06L147.12 17.06L147.12 0.12L154.57 0.12C158.93 0.12 161.42 2.3 161.42 6.07ZM157.22 6.21C157.22 4.54 156.22 3.65 154.39 3.65L151.59 3.65L151.59 8.85L154.39 8.85C156.18 8.85 157.22 7.93 157.22 6.21Z" />
			<path id="Layer" fill-rule="evenodd" class="shp4" d="M193.89 8.58C193.89 13.58 189.97 17.26 184.73 17.26C179.49 17.26 175.57 13.54 175.57 8.58C175.57 3.62 179.48 0 184.73 0C189.98 0 193.89 3.67 193.89 8.58ZM180.11 8.6C180.11 8.6 180.11 8.59 180.11 8.59C180.11 8.59 180.11 8.58 180.11 8.58L180.11 8.6ZM180.43 10.42C180.66 11 181 11.54 181.43 11.99C181.87 12.45 182.38 12.81 182.96 13.06C183.53 13.32 184.15 13.46 184.78 13.47C185.4 13.45 186.02 13.31 186.58 13.06C187.15 12.8 187.66 12.44 188.09 11.98C188.51 11.53 188.84 10.99 189.06 10.41C189.28 9.82 189.38 9.2 189.35 8.58C189.37 7.96 189.27 7.34 189.06 6.76C188.84 6.18 188.51 5.65 188.08 5.2C187.66 4.75 187.14 4.39 186.58 4.14C186.01 3.89 185.4 3.76 184.78 3.75C184.15 3.76 183.53 3.89 182.96 4.14C182.38 4.38 181.86 4.74 181.43 5.2C180.99 5.65 180.65 6.18 180.43 6.77C180.2 7.35 180.09 7.97 180.11 8.59C180.1 9.22 180.21 9.84 180.43 10.42Z" />
			<path id="Layer" class="shp5" d="M47.34 56.72L19.44 56.72C19.33 56.73 19.22 56.74 19.11 56.72C19 56.71 18.89 56.69 18.78 56.65C18.68 56.62 18.57 56.57 18.48 56.51C18.39 56.45 18.3 56.38 18.22 56.3C18.15 56.23 18.08 56.15 18.02 56.06C17.97 55.97 17.92 55.88 17.89 55.78C17.85 55.68 17.83 55.58 17.82 55.47C17.81 55.37 17.82 55.26 17.83 55.16L17.83 52.31C17.82 52.21 17.81 52.1 17.82 51.99C17.83 51.89 17.86 51.79 17.89 51.69C17.93 51.59 17.97 51.49 18.03 51.4C18.09 51.31 18.15 51.23 18.23 51.16C18.31 51.08 18.39 51.01 18.49 50.95C18.58 50.89 18.68 50.85 18.79 50.81C18.89 50.77 19 50.75 19.11 50.74C19.22 50.73 19.33 50.73 19.44 50.74L48.18 50.74C49.89 50.74 51.58 50.4 53.15 49.75C54.73 49.1 56.17 48.14 57.37 46.93C58.58 45.73 59.54 44.29 60.19 42.71C60.84 41.14 61.18 39.45 61.18 37.74L61.18 33.6L17.65 33.6C16.49 33.58 15.34 33.69 14.2 33.9C13.07 34.12 11.96 34.45 10.89 34.89C9.82 35.33 8.8 35.88 7.84 36.53C6.88 37.17 5.99 37.91 5.18 38.74C4.35 39.54 3.6 40.43 2.95 41.39C2.3 42.34 1.75 43.37 1.3 44.43C0.86 45.5 0.52 46.61 0.3 47.75C0.09 48.89 -0.02 50.04 0 51.2L0 56.58C-0.02 57.74 0.08 58.89 0.3 60.03C0.52 61.17 0.85 62.28 1.3 63.35C1.74 64.42 2.3 65.44 2.95 66.4C3.6 67.36 4.35 68.24 5.18 69.05C5.99 69.88 6.88 70.62 7.84 71.26C8.8 71.91 9.82 72.45 10.89 72.89C11.96 73.33 13.07 73.66 14.2 73.88C15.34 74.1 16.49 74.2 17.65 74.18L45.55 74.18C45.66 74.17 45.77 74.17 45.88 74.18C45.99 74.19 46.1 74.21 46.2 74.25C46.31 74.28 46.41 74.33 46.5 74.39C46.59 74.45 46.68 74.51 46.76 74.59C46.84 74.66 46.9 74.75 46.96 74.84C47.02 74.93 47.06 75.02 47.1 75.12C47.13 75.22 47.15 75.33 47.16 75.43C47.18 75.54 47.17 75.64 47.16 75.75L47.16 80.75C47.17 80.86 47.17 80.96 47.16 81.07C47.15 81.17 47.12 81.27 47.08 81.37C47.05 81.47 47 81.57 46.94 81.66C46.88 81.75 46.82 81.83 46.74 81.9C46.66 81.98 46.58 82.05 46.49 82.1C46.39 82.16 46.3 82.21 46.19 82.25C46.09 82.28 45.98 82.3 45.88 82.31C45.77 82.33 45.66 82.32 45.55 82.31L14.93 82.31C13.22 82.31 11.53 82.65 9.96 83.3C8.38 83.95 6.94 84.91 5.74 86.12C4.53 87.32 3.57 88.76 2.92 90.34C2.27 91.91 1.93 93.6 1.93 95.31L1.93 99.46L47.34 99.46C49.66 99.47 51.96 99.01 54.1 98.13C56.25 97.24 58.19 95.94 59.84 94.3C61.48 92.66 62.78 90.72 63.66 88.57C64.55 86.43 65 84.13 65 81.81L65 74.32C65 72 64.54 69.71 63.66 67.57C62.77 65.43 61.47 63.49 59.83 61.86C58.19 60.22 56.24 58.93 54.1 58.05C51.96 57.16 49.67 56.71 47.35 56.72L47.34 56.72Z" />
			<path id="Layer" class="shp6" d="M73.51 99.42L87.18 99.42C87.73 99.42 88.27 99.31 88.78 99.1C89.28 98.89 89.74 98.59 90.13 98.2C90.52 97.81 90.82 97.35 91.03 96.85C91.24 96.34 91.35 95.8 91.35 95.25L91.35 33.6L77.68 33.6C77.13 33.6 76.59 33.71 76.09 33.92C75.58 34.13 75.12 34.43 74.73 34.82C74.35 35.2 74.04 35.66 73.83 36.17C73.62 36.67 73.51 37.21 73.51 37.76L73.51 99.42Z" />
			<path id="Layer" class="shp7" d="M229.13 33.55L229.13 69.55L195.2 36.28C194.77 35.86 194.29 35.47 193.79 35.14C193.28 34.81 192.74 34.52 192.18 34.3C191.62 34.07 191.04 33.89 190.45 33.78C189.85 33.66 189.25 33.6 188.64 33.6L188.64 33.6C187.41 33.6 186.19 33.84 185.05 34.32C183.91 34.79 182.87 35.48 182 36.35C181.13 37.23 180.44 38.26 179.97 39.4C179.5 40.54 179.26 41.77 179.26 43L179.26 95.3C179.26 95.85 179.37 96.39 179.58 96.89C179.79 97.4 180.09 97.86 180.48 98.24C180.86 98.63 181.32 98.93 181.83 99.14C182.33 99.35 182.87 99.46 183.42 99.46L197.14 99.46L197.14 63.34L231.06 96.72C231.49 97.15 231.97 97.53 232.47 97.87C232.98 98.2 233.52 98.49 234.08 98.72C234.65 98.95 235.23 99.13 235.83 99.24C236.42 99.36 237.03 99.42 237.64 99.42L237.64 99.42C238.87 99.42 240.09 99.17 241.23 98.7C242.37 98.22 243.4 97.53 244.27 96.65C245.14 95.78 245.83 94.74 246.3 93.6C246.77 92.46 247.01 91.23 247 90L247 37.71C247 37.16 246.89 36.62 246.68 36.12C246.47 35.61 246.17 35.15 245.78 34.77C245.4 34.38 244.94 34.08 244.43 33.87C243.93 33.66 243.39 33.55 242.84 33.55L229.13 33.55Z" />
			<path id="Layer" class="shp8" d="M135.2 20.43L135.53 20.43C139.78 20.43 143.21 23.86 143.21 28.11L143.21 58.7C143.21 62.95 139.78 66.38 135.53 66.38L135.2 66.38C130.95 66.38 127.52 62.95 127.52 58.7L127.52 28.11C127.52 23.86 130.95 20.43 135.2 20.43Z" />
			<path id="Layer" class="shp8" d="M146.27 31.27L146.27 48.48C153.76 53.31 157.18 62.49 154.66 71.04C152.15 79.59 144.3 85.46 135.39 85.46C126.48 85.46 118.63 79.59 116.12 71.04C113.6 62.49 117.02 53.31 124.51 48.48L124.51 31.27C107.71 36.63 97.32 53.44 100.04 70.86C102.75 88.29 117.75 101.14 135.39 101.14C153.03 101.14 168.03 88.29 170.74 70.86C173.46 53.44 163.07 36.63 146.27 31.27L146.27 31.27Z" />
		</g>
	</g>
</svg>